<?xml version="1.0" encoding="utf-8"?>
<!-- Uploaded to: SVG Repo, www.svgrepo.com, Generator: SVG Repo Mixer Tools -->
<svg version="1.1" id="Uploaded to svgrepo.com" xmlns="http://www.w3.org/2000/svg" xmlns:xlink="http://www.w3.org/1999/xlink" 
	 width="800px" height="800px" viewBox="0 0 32 32" xml:space="preserve">
<style type="text/css">
	.avocado_zestien{fill:#E598A3;}
	.avocado_vijftien{fill:#D36781;}
	.avocado_een{fill:#231F20;}
	.st0{fill:#EAD13F;}
	.st1{fill:#CC4121;}
	.st2{fill:#FFFAEE;}
	.st3{fill:#E0A838;}
	.st4{fill:#D1712A;}
	.st5{fill:#A3AEB5;}
	.st6{fill:#788287;}
	.st7{fill:#C3CC6A;}
	.st8{fill:#6F9B45;}
	.st9{fill:#248EBC;}
	.st10{fill:#8D3E93;}
	.st11{fill:#3D3935;}
	.st12{fill:#716558;}
	.st13{fill:#AF9480;}
	.st14{fill:#DBD2C1;}
	.st15{fill:#231F20;}
</style>
<g>
	<path class="avocado_vijftien" d="M16,27.437C17.777,26.495,29.5,19.975,29.5,12c0-4.136-3.364-7.5-7.5-7.5
		c-2.147,0-4.197,0.93-5.625,2.551L16,7.478l-0.375-0.426C14.197,5.43,12.147,4.5,10,4.5c-4.136,0-7.5,3.364-7.5,7.5
		C2.5,19.975,14.223,26.495,16,27.437z"/>
	<path class="avocado_een" d="M22,4c-2.393,0-4.534,1.056-6,2.721C14.534,5.056,12.393,4,10,4c-4.418,0-8,3.582-8,8
		c0,9,14,16,14,16s14-7,14-16C30,7.582,26.418,4,22,4z M16,26.869C13.664,25.601,3,19.406,3,12c0-3.86,3.14-7,7-7
		c2.003,0,3.917,0.868,5.25,2.382L16,8.234l0.75-0.852C18.083,5.868,19.997,5,22,5c3.86,0,7,3.14,7,7
		C29,19.406,18.336,25.601,16,26.869z"/>
	<g>
		<circle class="avocado_zestien" cx="8" cy="10" r="2"/>
	</g>
</g>
</svg>